<svg xmlns="http://www.w3.org/2000/svg" width="900" height="260" viewBox="0 0 900 260" font-family="ui-monospace, Menlo, monospace">
<rect width="900" height="260" fill="#faf9f5"/>
<line x1="60" y1="216.0" x2="880" y2="216.0" stroke="#e5e2da"/>
<text x="52" y="220.0" text-anchor="end" font-size="11" fill="#8a877e">0</text>
<line x1="60" y1="178.8" x2="880" y2="178.8" stroke="#e5e2da"/>
<text x="52" y="182.8" text-anchor="end" font-size="11" fill="#8a877e">1</text>
<line x1="60" y1="141.6" x2="880" y2="141.6" stroke="#e5e2da"/>
<text x="52" y="145.6" text-anchor="end" font-size="11" fill="#8a877e">2</text>
<line x1="60" y1="104.4" x2="880" y2="104.4" stroke="#e5e2da"/>
<text x="52" y="108.4" text-anchor="end" font-size="11" fill="#8a877e">3</text>
<line x1="60" y1="67.2" x2="880" y2="67.2" stroke="#e5e2da"/>
<text x="52" y="71.2" text-anchor="end" font-size="11" fill="#8a877e">4</text>
<line x1="60" y1="30.0" x2="880" y2="30.0" stroke="#e5e2da"/>
<text x="52" y="34.0" text-anchor="end" font-size="11" fill="#8a877e">5</text>
<text x="100.9" y="232" text-anchor="middle" font-size="10" fill="#8a877e" transform="rotate(-35 100.9 232)">09-02 13:25Z</text>
<text x="793.3" y="232" text-anchor="middle" font-size="10" fill="#8a877e" transform="rotate(-35 793.3 232)">09-03 06:21Z</text>
<text x="835.6" y="232" text-anchor="middle" font-size="10" fill="#8a877e" transform="rotate(-35 835.6 232)">09-03 07:23Z</text>
<text x="836.2" y="232" text-anchor="middle" font-size="10" fill="#8a877e" transform="rotate(-35 836.2 232)">09-03 07:24Z</text>
<text x="839.1" y="232" text-anchor="middle" font-size="10" fill="#8a877e" transform="rotate(-35 839.1 232)">09-03 07:29Z</text>
<line x1="60.0" y1="216.0" x2="100.9" y2="178.8" stroke="#c6d452" stroke-width="2"/>
<line x1="100.9" y1="178.8" x2="793.3" y2="178.8" stroke="#1d1f24" stroke-width="2"/>
<line x1="793.3" y1="178.8" x2="793.3" y2="141.6" stroke="#c6d452" stroke-width="2"/>
<line x1="793.3" y1="141.6" x2="835.6" y2="141.6" stroke="#1d1f24" stroke-width="2"/>
<line x1="835.6" y1="141.6" x2="835.6" y2="104.4" stroke="#c6d452" stroke-width="2"/>
<line x1="835.6" y1="104.4" x2="836.2" y2="104.4" stroke="#1d1f24" stroke-width="2"/>
<line x1="836.2" y1="104.4" x2="836.2" y2="67.2" stroke="#c6d452" stroke-width="2"/>
<line x1="836.2" y1="67.2" x2="839.1" y2="67.2" stroke="#1d1f24" stroke-width="2"/>
<line x1="839.1" y1="67.2" x2="839.1" y2="30.0" stroke="#c6d452" stroke-width="2"/>
<circle cx="100.9" cy="178.8" r="5" fill="#c6d452" stroke="#1d1f24" stroke-width="1.5"/>
<circle cx="793.3" cy="141.6" r="5" fill="#c6d452" stroke="#1d1f24" stroke-width="1.5"/>
<circle cx="835.6" cy="104.4" r="5" fill="#c6d452" stroke="#1d1f24" stroke-width="1.5"/>
<circle cx="836.2" cy="67.2" r="5" fill="#c6d452" stroke="#1d1f24" stroke-width="1.5"/>
<circle cx="839.1" cy="30.0" r="5" fill="#c6d452" stroke="#1d1f24" stroke-width="1.5"/>
<text x="100.9" y="166.8" text-anchor="middle" font-size="11" fill="#1d1f24" font-weight="600">#24</text>
<text x="793.3" y="161.6" text-anchor="middle" font-size="11" fill="#1d1f24" font-weight="600">#28</text>
<text x="835.6" y="92.4" text-anchor="middle" font-size="11" fill="#1d1f24" font-weight="600">#30</text>
<text x="836.2" y="87.2" text-anchor="middle" font-size="11" fill="#1d1f24" font-weight="600">#31</text>
<text x="839.1" y="18.0" text-anchor="middle" font-size="11" fill="#1d1f24" font-weight="600">#32</text>
<text x="60" y="18" font-size="12" fill="#1d1f24" font-weight="600">Receipts minted — cumulative (5 on-chain)</text>
</svg>